<svg xmlns="http://www.w3.org/2000/svg" width="800" height="560" viewBox="0 0 800 560" fill="none"><defs><linearGradient id="g" x1="120" y1="90" x2="690" y2="470" gradientUnits="userSpaceOnUse"><stop stop-color="#23D6D2"/><stop offset=".52" stop-color="#2F86FF"/><stop offset="1" stop-color="#8B5CFF"/></linearGradient></defs><rect width="800" height="560" rx="42" fill="#08142F"/><circle cx="126" cy="126" r="85" fill="#23D6D2" opacity=".13"/><circle cx="684" cy="428" r="96" fill="#8B5CFF" opacity=".13"/><rect x="104" y="112" width="592" height="336" rx="34" fill="#12244D"/><rect x="145" y="156" width="235" height="246" rx="26" fill="url(#g)"/><path d="M238 202h50v47h47v50h-47v47h-50v-47h-47v-50h47v-47z" fill="#fff"/><rect x="425" y="162" width="223" height="30" rx="15" fill="#1F3A75"/><rect x="425" y="220" width="188" height="17" rx="8.5" fill="#F8FBFF" fill-opacity=".88"/><rect x="425" y="254" width="164" height="17" rx="8.5" fill="#F8FBFF" fill-opacity=".68"/><path d="M425 322h38l23-42 31 80 25-48 20 10h62" stroke="#23D6D2" stroke-width="13" stroke-linecap="round" stroke-linejoin="round"/><rect x="425" y="378" width="180" height="18" rx="9" fill="#F8FBFF" fill-opacity=".48"/></svg>